<svg width="42" height="43" viewBox="0 0 42 43" fill="none" xmlns="http://www.w3.org/2000/svg">
<rect y="0.592896" width="42" height="42" rx="21" fill="#71879C" fill-opacity="0.1"/>
<path d="M13.1136 19.7461L20.9999 15.0877L28.8862 19.7461C28.9636 19.792 29.0488 19.8137 29.1329 19.8137C29.2992 19.8137 29.4612 19.7284 29.5519 19.5749C29.6886 19.3439 29.6119 19.0459 29.3805 18.9092L21.2472 14.1047C21.0947 14.0149 20.9055 14.0149 20.7529 14.1047L12.6193 18.9092C12.3883 19.0459 12.3115 19.3439 12.4479 19.5749C12.5845 19.806 12.8825 19.8827 13.1136 19.7461Z" fill="#0898A0"/>
<path d="M29.1336 28.1765H12.8664C12.598 28.1765 12.3804 28.3941 12.3804 28.6625C12.3804 28.9309 12.598 29.1485 12.8664 29.1485H29.1336C29.4019 29.1485 29.6196 28.9309 29.6196 28.6625C29.6196 28.3938 29.4019 28.1765 29.1336 28.1765Z" fill="#0898A0"/>
<path d="M17.2672 20.4945C17.5355 20.4945 17.7532 20.2769 17.7532 20.0086C17.7532 19.7402 17.5355 19.5226 17.2672 19.5226H15.6393C15.3709 19.5226 15.1533 19.7402 15.1533 20.0086C15.1533 20.2769 15.3709 20.4945 15.6393 20.4945H15.9673V26.3538H15.6393C15.3709 26.3538 15.1533 26.5714 15.1533 26.8398C15.1533 27.1082 15.3709 27.3258 15.6393 27.3258H17.2672C17.5355 27.3258 17.7532 27.1082 17.7532 26.8398C17.7532 26.5714 17.5355 26.3538 17.2672 26.3538H16.9392V20.4945H17.2672Z" fill="#0898A0"/>
<path d="M21.8136 20.4883C22.0819 20.4883 22.2996 20.2707 22.2996 20.0023C22.2996 19.734 22.0819 19.5164 21.8136 19.5164H20.1857C19.9173 19.5164 19.6997 19.734 19.6997 20.0023C19.6997 20.2707 19.9173 20.4883 20.1857 20.4883H20.5136V26.3476H20.1857C19.9173 26.3476 19.6997 26.5652 19.6997 26.8336C19.6997 27.1019 19.9173 27.3196 20.1857 27.3196H21.8136C22.0819 27.3196 22.2996 27.1019 22.2996 26.8336C22.2996 26.5652 22.0819 26.3476 21.8136 26.3476H21.4856V20.4883H21.8136Z" fill="#0898A0"/>
<path d="M26.3604 20.4816C26.6288 20.4816 26.8464 20.264 26.8464 19.9956C26.8464 19.7273 26.6288 19.5096 26.3604 19.5096H24.7326C24.4642 19.5096 24.2466 19.7273 24.2466 19.9956C24.2466 20.264 24.4642 20.4816 24.7326 20.4816H25.0605V26.3409H24.7326C24.4642 26.3409 24.2466 26.5585 24.2466 26.8269C24.2466 27.0952 24.4642 27.3128 24.7326 27.3128H26.3604C26.6288 27.3128 26.8464 27.0952 26.8464 26.8269C26.8464 26.5585 26.6288 26.3409 26.3604 26.3409H26.0325V20.4816H26.3604Z" fill="#0898A0"/>
</svg>
