<svg width="40" height="41" viewBox="0 0 40 41" fill="none" xmlns="http://www.w3.org/2000/svg">
<rect y="0.836914" width="40" height="40" rx="20" fill="#71879C" fill-opacity="0.1"/>
<path d="M20 29.6625C20.2455 29.6625 20.4816 29.6433 20.7365 29.6145L21.2276 30.5728C21.322 30.774 21.5014 30.8603 21.7375 30.8315C21.9641 30.7932 22.0963 30.6495 22.1246 30.4099L22.2757 29.3462C22.7479 29.2217 23.2106 29.0396 23.6544 28.8384L24.4287 29.5475C24.5892 29.7104 24.7875 29.7295 25.0047 29.6145C25.1936 29.5091 25.2597 29.3271 25.2219 29.0875L25.0047 28.043C25.4013 27.7651 25.7885 27.4489 26.1284 27.0847L27.0916 27.4968C27.3088 27.5926 27.4882 27.5447 27.6582 27.3435C27.8187 27.1806 27.8281 26.9793 27.6959 26.7781L27.1388 25.8678C27.4221 25.4653 27.6582 25.0341 27.8659 24.5741L28.9235 24.6316C29.1501 24.6412 29.3201 24.5262 29.3957 24.3058C29.4712 24.095 29.4051 23.9033 29.2257 23.7596L28.4042 23.0888C28.5269 22.6193 28.6213 22.1306 28.6591 21.6131L29.6506 21.2969C29.8772 21.2202 30 21.0669 30 20.8273C30 20.5974 29.8772 20.444 29.6506 20.3674L28.6591 20.0416C28.6213 19.5337 28.5269 19.045 28.4042 18.5754L29.2257 17.9047C29.4051 17.7705 29.4618 17.5884 29.3957 17.368C29.3201 17.1476 29.1501 17.0327 28.9235 17.0422L27.8659 17.0806C27.6582 16.6302 27.4221 16.199 27.1388 15.7965L27.6959 14.8766C27.8281 14.6945 27.8093 14.4933 27.6582 14.3304C27.4882 14.1291 27.3088 14.0812 27.0916 14.1771L26.1284 14.5699C25.7885 14.225 25.4013 13.9087 25.0047 13.6308L25.2219 12.5863C25.2597 12.3468 25.1936 12.1551 25.0047 12.0593C24.7875 11.9347 24.5987 11.9539 24.4287 12.1264L23.6544 12.8259C23.2106 12.6151 22.7479 12.4522 22.2757 12.318L22.1246 11.264C22.0963 11.0244 21.9547 10.8807 21.7375 10.8423C21.5014 10.8136 21.322 10.8998 21.2276 11.0915L20.7365 12.0497C20.4816 12.0306 20.2455 12.0114 20 12.0114C19.7545 12.0114 19.5184 12.0306 19.2635 12.0497L18.763 11.0915C18.678 10.8998 18.4986 10.8136 18.2531 10.8423C18.0359 10.8807 17.9037 11.0244 17.8754 11.264L17.7243 12.318C17.2521 12.4522 16.7894 12.6151 16.3362 12.8259L15.5619 12.1264C15.3919 11.9635 15.203 11.9443 14.9953 12.0593C14.8064 12.1551 14.7309 12.3468 14.7781 12.5863L14.9953 13.6308C14.5987 13.9087 14.2115 14.225 13.8621 14.5699L12.899 14.1771C12.6912 14.0812 12.5024 14.1291 12.3324 14.3304C12.1813 14.4933 12.1719 14.6945 12.2946 14.8766L12.8612 15.7965C12.5779 16.199 12.3418 16.6302 12.1341 17.0806L11.067 17.0422C10.8404 17.0327 10.6704 17.1476 10.6043 17.368C10.5194 17.5884 10.576 17.7705 10.7649 17.9047L11.5958 18.5754C11.4731 19.045 11.3787 19.5337 11.3409 20.0416L10.3399 20.3674C10.1133 20.444 10 20.5974 10 20.8273C10 21.0669 10.1133 21.2202 10.3399 21.2969L11.3409 21.6227C11.3787 22.1306 11.4636 22.6193 11.5958 23.0888L10.7649 23.7596C10.5855 23.8938 10.5288 24.0854 10.6043 24.3058C10.6704 24.5262 10.8404 24.6412 11.067 24.6316L12.1341 24.5741C12.3418 25.0341 12.5779 25.4653 12.8517 25.8678L12.2946 26.7781C12.1624 26.9793 12.1813 27.1806 12.3324 27.3435C12.5024 27.5447 12.6912 27.5926 12.899 27.4968L13.8621 27.0847C14.2115 27.4489 14.5987 27.7651 14.9953 28.043L14.7781 29.0875C14.7309 29.3271 14.8064 29.5091 14.9953 29.6145C15.2125 29.7295 15.4013 29.7104 15.5619 29.5475L16.3362 28.8384C16.7894 29.0396 17.2521 29.2217 17.7243 29.3462L17.8754 30.4099C17.9037 30.6495 18.0359 30.7932 18.2625 30.8315C18.4986 30.8603 18.678 30.774 18.763 30.5728L19.2635 29.6145C19.509 29.6433 19.7545 29.6625 20 29.6625ZM22.1719 20.3195C21.8225 19.2271 21.0009 18.5754 19.9906 18.5754C19.8111 18.5754 19.6223 18.6042 19.3484 18.6808L16.6478 13.995C17.6487 13.4871 18.7819 13.1996 20 13.1996C24.0132 13.1996 27.1671 16.314 27.4221 20.3195H22.1719ZM12.5685 20.8369C12.5685 18.2113 13.8055 15.9211 15.7318 14.5412L18.4514 19.2462C17.9792 19.7253 17.7337 20.2811 17.7337 20.8753C17.7337 21.4694 17.9698 22.006 18.4703 22.5043L15.7035 27.1039C13.7866 25.724 12.5685 23.4434 12.5685 20.8369ZM18.8385 20.8657C18.8385 20.2141 19.3862 19.7062 20 19.7062C20.6421 19.7062 21.1709 20.2141 21.1709 20.8657C21.1709 21.5173 20.6421 22.0443 20 22.0443C19.3862 22.0443 18.8385 21.5173 18.8385 20.8657ZM20 28.4742C18.7724 28.4742 17.6204 28.1867 16.61 27.6597L19.3673 23.0792C19.6223 23.1463 19.8111 23.1655 19.9906 23.1655C21.0104 23.1655 21.8414 22.4947 22.1813 21.3735H27.4127C27.1577 25.3695 24.0038 28.4742 20 28.4742Z" fill="#0898A0"/>
</svg>
