<svg width="40" height="41" viewBox="0 0 40 41" fill="none" xmlns="http://www.w3.org/2000/svg">
<rect y="0.836914" width="40" height="40" rx="20" fill="#71879C" fill-opacity="0.1"/>
<path d="M20.0735 24.3088C20.5638 24.3088 20.7955 23.9701 20.7955 23.5155V23.0965C20.8134 21.9377 21.2145 21.4297 22.5961 20.4759C24.0936 19.4419 24.9493 18.3455 24.9493 16.7678C24.9493 14.3255 22.9616 12.8369 20.4479 12.8369C18.5404 12.8369 16.9003 13.8085 16.2228 15.4486C16.0624 15.8319 16 16.1974 16 16.4915C16 16.9015 16.2318 17.1779 16.6685 17.1779C17.034 17.1779 17.2747 16.9639 17.3816 16.6074C17.7738 14.9316 18.9237 14.174 20.4033 14.174C22.1237 14.174 23.4786 15.1901 23.4786 16.7678C23.4786 17.9712 22.7565 18.6932 21.5799 19.5311C20.1983 20.5116 19.3337 21.4475 19.3337 22.9183V23.5333C19.3337 23.9879 19.5833 24.3088 20.0735 24.3088ZM20.0825 28.8369C20.6708 28.8369 21.1432 28.3556 21.1432 27.7762C21.1432 27.1968 20.6708 26.7244 20.0825 26.7244C19.5031 26.7244 19.0306 27.1968 19.0306 27.7762C19.0306 28.3556 19.5031 28.8369 20.0825 28.8369Z" fill="#0898A0"/>
</svg>
