<svg width="40" height="41" viewBox="0 0 40 41" fill="none" xmlns="http://www.w3.org/2000/svg">
<rect y="0.836914" width="40" height="40" rx="20" fill="#71879C" fill-opacity="0.1"/>
<path d="M13.5825 28.8369H26.4175C28.1295 28.8369 29 27.9669 29 26.3121V15.3523C29 13.7069 28.1295 12.8369 26.4175 12.8369H13.5825C11.8802 12.8369 11 13.688 11 15.3523V26.3121C11 27.9764 11.8802 28.8369 13.5825 28.8369ZM13.5341 27.9197C12.4895 27.9197 11.9285 27.3806 11.9285 26.3405V18.3215C11.9285 17.2814 12.4895 16.7424 13.5341 16.7424H26.4562C27.4815 16.7424 28.0715 17.2814 28.0715 18.3215V26.3405C28.0715 27.3806 27.4815 27.9197 26.4562 27.9197H13.5341ZM18.1671 19.8913H18.6991C18.9699 19.8913 19.0279 19.8345 19.0279 19.5792V19.0497C19.0279 18.8038 18.9699 18.7471 18.6991 18.7471H18.1671C17.8963 18.7471 17.8383 18.8038 17.8383 19.0497V19.5792C17.8383 19.8345 17.8963 19.8913 18.1671 19.8913ZM21.3009 19.8913H21.8329C22.1037 19.8913 22.1617 19.8345 22.1617 19.5792V19.0497C22.1617 18.8038 22.1037 18.7471 21.8329 18.7471H21.3009C21.0301 18.7471 20.9721 18.8038 20.9721 19.0497V19.5792C20.9721 19.8345 21.0301 19.8913 21.3009 19.8913ZM24.425 19.8913H24.9667C25.2278 19.8913 25.2955 19.8345 25.2955 19.5792V19.0497C25.2955 18.8038 25.2278 18.7471 24.9667 18.7471H24.425C24.1639 18.7471 24.0962 18.8038 24.0962 19.0497V19.5792C24.0962 19.8345 24.1639 19.8913 24.425 19.8913ZM15.0333 22.9078H15.575C15.8361 22.9078 15.9038 22.8511 15.9038 22.5958V22.0662C15.9038 21.8109 15.8361 21.7542 15.575 21.7542H15.0333C14.7722 21.7542 14.7045 21.8109 14.7045 22.0662V22.5958C14.7045 22.8511 14.7722 22.9078 15.0333 22.9078ZM18.1671 22.9078H18.6991C18.9699 22.9078 19.0279 22.8511 19.0279 22.5958V22.0662C19.0279 21.8109 18.9699 21.7542 18.6991 21.7542H18.1671C17.8963 21.7542 17.8383 21.8109 17.8383 22.0662V22.5958C17.8383 22.8511 17.8963 22.9078 18.1671 22.9078ZM21.3009 22.9078H21.8329C22.1037 22.9078 22.1617 22.8511 22.1617 22.5958V22.0662C22.1617 21.8109 22.1037 21.7542 21.8329 21.7542H21.3009C21.0301 21.7542 20.9721 21.8109 20.9721 22.0662V22.5958C20.9721 22.8511 21.0301 22.9078 21.3009 22.9078ZM24.425 22.9078H24.9667C25.2278 22.9078 25.2955 22.8511 25.2955 22.5958V22.0662C25.2955 21.8109 25.2278 21.7542 24.9667 21.7542H24.425C24.1639 21.7542 24.0962 21.8109 24.0962 22.0662V22.5958C24.0962 22.8511 24.1639 22.9078 24.425 22.9078ZM15.0333 25.9149H15.575C15.8361 25.9149 15.9038 25.8582 15.9038 25.6029V25.0828C15.9038 24.8275 15.8361 24.7707 15.575 24.7707H15.0333C14.7722 24.7707 14.7045 24.8275 14.7045 25.0828V25.6029C14.7045 25.8582 14.7722 25.9149 15.0333 25.9149ZM18.1671 25.9149H18.6991C18.9699 25.9149 19.0279 25.8582 19.0279 25.6029V25.0828C19.0279 24.8275 18.9699 24.7707 18.6991 24.7707H18.1671C17.8963 24.7707 17.8383 24.8275 17.8383 25.0828V25.6029C17.8383 25.8582 17.8963 25.9149 18.1671 25.9149ZM21.3009 25.9149H21.8329C22.1037 25.9149 22.1617 25.8582 22.1617 25.6029V25.0828C22.1617 24.8275 22.1037 24.7707 21.8329 24.7707H21.3009C21.0301 24.7707 20.9721 24.8275 20.9721 25.0828V25.6029C20.9721 25.8582 21.0301 25.9149 21.3009 25.9149Z" fill="#0898A0"/>
</svg>
