<svg width="24" height="25" viewBox="0 0 24 25" fill="none" xmlns="http://www.w3.org/2000/svg">
<path d="M5.58248 20.5H18.4175C20.1295 20.5 21 19.63 21 17.9752V7.01537C21 5.36998 20.1295 4.5 18.4175 4.5H5.58248C3.88017 4.5 3 5.35106 3 7.01537V17.9752C3 19.6395 3.88017 20.5 5.58248 20.5ZM5.53412 19.5827C4.48952 19.5827 3.92853 19.0437 3.92853 18.0035V9.98463C3.92853 8.94444 4.48952 8.40544 5.53412 8.40544H18.4562C19.4815 8.40544 20.0715 8.94444 20.0715 9.98463V18.0035C20.0715 19.0437 19.4815 19.5827 18.4562 19.5827H5.53412ZM10.1671 11.5544H10.6991C10.9699 11.5544 11.0279 11.4976 11.0279 11.2423V10.7128C11.0279 10.4669 10.9699 10.4102 10.6991 10.4102H10.1671C9.89629 10.4102 9.83826 10.4669 9.83826 10.7128V11.2423C9.83826 11.4976 9.89629 11.5544 10.1671 11.5544ZM13.3009 11.5544H13.8329C14.1037 11.5544 14.1617 11.4976 14.1617 11.2423V10.7128C14.1617 10.4669 14.1037 10.4102 13.8329 10.4102H13.3009C13.0301 10.4102 12.9721 10.4669 12.9721 10.7128V11.2423C12.9721 11.4976 13.0301 11.5544 13.3009 11.5544ZM16.425 11.5544H16.9667C17.2278 11.5544 17.2955 11.4976 17.2955 11.2423V10.7128C17.2955 10.4669 17.2278 10.4102 16.9667 10.4102H16.425C16.1639 10.4102 16.0962 10.4669 16.0962 10.7128V11.2423C16.0962 11.4976 16.1639 11.5544 16.425 11.5544ZM7.03332 14.5709H7.57496C7.83611 14.5709 7.90381 14.5142 7.90381 14.2589V13.7293C7.90381 13.474 7.83611 13.4173 7.57496 13.4173H7.03332C6.77217 13.4173 6.70446 13.474 6.70446 13.7293V14.2589C6.70446 14.5142 6.77217 14.5709 7.03332 14.5709ZM10.1671 14.5709H10.6991C10.9699 14.5709 11.0279 14.5142 11.0279 14.2589V13.7293C11.0279 13.474 10.9699 13.4173 10.6991 13.4173H10.1671C9.89629 13.4173 9.83826 13.474 9.83826 13.7293V14.2589C9.83826 14.5142 9.89629 14.5709 10.1671 14.5709ZM13.3009 14.5709H13.8329C14.1037 14.5709 14.1617 14.5142 14.1617 14.2589V13.7293C14.1617 13.474 14.1037 13.4173 13.8329 13.4173H13.3009C13.0301 13.4173 12.9721 13.474 12.9721 13.7293V14.2589C12.9721 14.5142 13.0301 14.5709 13.3009 14.5709ZM16.425 14.5709H16.9667C17.2278 14.5709 17.2955 14.5142 17.2955 14.2589V13.7293C17.2955 13.474 17.2278 13.4173 16.9667 13.4173H16.425C16.1639 13.4173 16.0962 13.474 16.0962 13.7293V14.2589C16.0962 14.5142 16.1639 14.5709 16.425 14.5709ZM7.03332 17.578H7.57496C7.83611 17.578 7.90381 17.5213 7.90381 17.266V16.7459C7.90381 16.4905 7.83611 16.4338 7.57496 16.4338H7.03332C6.77217 16.4338 6.70446 16.4905 6.70446 16.7459V17.266C6.70446 17.5213 6.77217 17.578 7.03332 17.578ZM10.1671 17.578H10.6991C10.9699 17.578 11.0279 17.5213 11.0279 17.266V16.7459C11.0279 16.4905 10.9699 16.4338 10.6991 16.4338H10.1671C9.89629 16.4338 9.83826 16.4905 9.83826 16.7459V17.266C9.83826 17.5213 9.89629 17.578 10.1671 17.578ZM13.3009 17.578H13.8329C14.1037 17.578 14.1617 17.5213 14.1617 17.266V16.7459C14.1617 16.4905 14.1037 16.4338 13.8329 16.4338H13.3009C13.0301 16.4338 12.9721 16.4905 12.9721 16.7459V17.266C12.9721 17.5213 13.0301 17.578 13.3009 17.578Z" fill="#0898A0"/>
</svg>
