<svg width="42" height="43" viewBox="0 0 42 43" fill="none" xmlns="http://www.w3.org/2000/svg">
<rect y="0.778809" width="42" height="42" rx="21" fill="#71879C" fill-opacity="0.1"/>
<path d="M14.8438 28.0745H27.2031C28.7266 28.0745 29.5 27.2932 29.5 25.7932V17.4417C29.5 15.9338 28.7266 15.1526 27.2031 15.1526H14.8438C13.3125 15.1526 12.5391 15.926 12.5391 17.4417V25.7932C12.5391 27.301 13.3125 28.0745 14.8438 28.0745ZM13.5078 17.4885C13.5078 16.5901 13.9844 16.1213 14.8594 16.1213H27.1797C28.0391 16.1213 28.5391 16.5901 28.5391 17.4885V18.1135H13.5078V17.4885ZM14.8594 27.1057C13.9844 27.1057 13.5078 26.6448 13.5078 25.7385V19.5635H28.5391V25.7385C28.5391 26.6448 28.0391 27.1057 27.1797 27.1057H14.8594ZM15.8047 24.1448H17.7188C18.1797 24.1448 18.4922 23.8323 18.4922 23.3948V22.4417C18.4922 22.0042 18.1797 21.6995 17.7188 21.6995H15.8047C15.3516 21.6995 15.0391 22.0042 15.0391 22.4417V23.3948C15.0391 23.8323 15.3516 24.1448 15.8047 24.1448Z" fill="#0898A0"/>
</svg>
