<svg width="42" height="43" viewBox="0 0 42 43" fill="none" xmlns="http://www.w3.org/2000/svg">
<rect y="0.336487" width="42" height="42" rx="21" fill="#71879C" fill-opacity="0.1"/>
<path fill-rule="evenodd" clip-rule="evenodd" d="M23.6428 15.9023L24.3363 13.1206L24.156 13.0757L23.465 15.8474L22.6889 15.654C22.2422 15.5427 21.7818 15.4373 21.3159 15.331L20.5202 15.1494L21.22 12.3437L21.0405 12.2989L20.3342 15.129L19.5701 14.955C19.1934 14.8692 18.8161 14.7827 18.4482 14.6912L17.6912 14.503L17.6933 14.4934L16.8363 14.2794L16.7647 14.5669C16.8746 14.5935 16.98 14.6196 17.0662 14.6419C17.1264 14.6575 17.187 14.6737 17.2354 14.6883C17.2526 14.6934 17.2861 14.7037 17.3228 14.7176C17.7958 14.8516 18.1671 15.1067 18.4014 15.4759C18.6376 15.8481 18.6736 16.2409 18.6571 16.5268L18.6528 16.6016L17.8263 19.9174L17.2875 19.7831L17.2836 19.7952L17.8233 19.9298L16.6767 24.5268L16.656 24.5782C16.5836 24.7579 16.4336 25.0447 16.1373 25.259C15.8251 25.4847 15.4317 25.5708 15.0045 25.4848C14.9652 25.4796 14.9279 25.4721 14.9087 25.4681C14.8619 25.4584 14.8028 25.4447 14.7426 25.4301C14.6254 25.4018 14.4727 25.3632 14.3213 25.3242L14.1096 25.8123L15.4485 26.146C15.7021 26.2096 15.9608 26.277 16.2113 26.3423C16.3746 26.3849 16.5349 26.4267 16.6888 26.4661L17.4587 26.6633L16.7428 29.5378L16.9214 29.5824L17.6356 26.7176L18.4239 26.9315C18.8905 27.0581 19.3438 27.1751 19.7881 27.2855L20.5654 27.4785L19.8575 30.3146L20.0378 30.3595L20.7441 27.5288L21.4862 27.6692C22.9366 27.9437 24.0688 27.9936 24.9156 27.7331C25.6899 27.4948 26.3019 26.9737 26.6945 25.8521C27.0269 24.903 26.9794 24.2737 26.7863 23.8325C26.5884 23.3806 26.1748 22.981 25.4879 22.6234L23.5639 21.6217L25.6776 21.1342C26.1225 21.0316 26.465 20.8463 26.7177 20.5752C26.9697 20.3049 27.1837 19.8942 27.2786 19.2525L28.07 19.3695C27.9109 20.4447 27.4465 21.1322 26.7948 21.5379C26.5139 21.7127 26.1983 21.8351 25.8574 21.9138C26.1788 22.0811 26.4676 22.2669 26.7169 22.4755C27.6732 23.2754 28.0474 24.4094 27.4496 26.1163C26.5143 28.7889 24.2924 29.0144 21.3375 28.4552L20.6204 31.3292L18.8875 30.8973L19.5952 28.062C19.5394 28.0481 19.4835 28.0341 19.4274 28.02C19.282 27.9835 19.1355 27.9463 18.9878 27.9082C18.7338 27.8427 18.4762 27.7746 18.2143 27.7036L17.5041 30.5523L15.7732 30.1205L16.4904 27.2411C16.3286 27.1997 16.1658 27.1572 16.0019 27.1145C15.7556 27.0503 15.5068 26.9854 15.255 26.9223L13 26.3601L13.8603 24.3766C13.8603 24.3766 13.8939 24.3855 13.9501 24.4004C14.0389 24.4238 14.184 24.4621 14.3423 24.5032C14.6833 24.592 15.0857 24.6944 15.1179 24.6923C15.1187 24.6922 15.1192 24.6921 15.1195 24.6919C15.12 24.6917 15.1201 24.6914 15.1198 24.691C15.5304 24.7926 15.7498 24.5851 15.8608 24.3897C15.8824 24.3516 15.8999 24.3141 15.9139 24.2793L17.0471 19.7362C17.0896 19.7464 17.1312 19.7569 17.1713 19.7669C17.1913 19.772 17.211 19.7769 17.2302 19.7816C17.1611 19.754 17.0984 19.7362 17.05 19.7239L17.0504 19.7225L17.8585 16.4808C17.8691 16.2965 17.8426 16.088 17.7254 15.9038C17.6086 15.7201 17.4015 15.5605 17.051 15.473C17.0515 15.4727 17.0516 15.4723 17.0513 15.4718C17.051 15.4713 17.0502 15.4707 17.049 15.47C17.0242 15.4554 16.8134 15.4018 16.5713 15.3432C16.4748 15.3198 16.3734 15.2956 16.2767 15.2728C16.1791 15.2498 16.0863 15.2281 16.0087 15.21C15.8799 15.1801 15.7925 15.1601 15.7925 15.1601L16.2535 13.3093L18.6432 13.906L18.6412 13.9149C19.0005 14.0042 19.3707 14.0891 19.7478 14.1749L20.458 11.3292L22.1898 11.761L21.4939 14.551C21.7538 14.6104 22.0146 14.67 22.2736 14.7308C22.478 14.7789 22.6814 14.8277 22.8823 14.8778L23.5733 12.106L25.3061 12.5379L24.5964 15.3846C26.7843 16.1383 28.3843 17.268 28.07 19.3695L27.2788 19.2512C27.3968 18.4621 27.1686 17.9038 26.7036 17.435C26.1988 16.9262 25.3906 16.5043 24.3358 16.141L23.6428 15.9023ZM19.729 21.8037C19.7295 21.8038 19.73 21.804 19.7305 21.8041C19.8483 21.8334 19.992 21.8657 20.1547 21.9022C21.6171 22.2304 24.6141 22.9029 24.1107 24.9214C23.6194 26.8957 20.5292 26.0795 19.1153 25.706C18.996 25.6745 18.8887 25.6462 18.7959 25.6229C18.7897 25.6214 18.7835 25.6198 18.7775 25.6183L19.729 21.8037ZM24.887 25.1146C25.0894 24.3027 24.8943 23.5947 24.4577 23.0361C24.0502 22.5148 23.4611 22.1567 22.9009 21.9025C22.0002 21.4937 20.9284 21.2545 20.2876 21.1114C20.141 21.0787 20.017 21.051 19.9227 21.0275L19.1465 20.8338L17.8074 26.2017L18.5847 26.3947C18.6672 26.4153 18.769 26.4422 18.8866 26.4734C19.5203 26.6416 20.6135 26.9316 21.6422 26.9851C22.2552 27.0171 22.9387 26.9732 23.5365 26.7125C24.1758 26.4336 24.6876 25.9157 24.887 25.1146ZM25.4229 19.5322C25.2417 20.2582 24.8007 20.7518 24.2275 21.0304C23.6927 21.2903 23.0892 21.3424 22.5598 21.3229C21.6761 21.2904 20.7399 21.039 20.2153 20.8982C20.119 20.8723 20.0365 20.8502 19.9708 20.8338L19.1945 20.6403L20.4444 15.6281L21.2205 15.8215C21.2936 15.8397 21.3924 15.8614 21.5109 15.8875C22.0415 16.004 22.9666 16.2072 23.736 16.5704C24.2169 16.7974 24.7317 17.126 25.0836 17.6171C25.4608 18.1434 25.6062 18.7965 25.4229 19.5322ZM20.1643 20.0575C20.2458 20.0778 20.3414 20.1034 20.4486 20.132C21.6274 20.4466 24.1988 21.1328 24.6467 19.3384C25.1041 17.5031 22.6049 16.9498 21.3844 16.6796C21.2471 16.6492 21.126 16.6224 21.027 16.5978L20.1643 20.0575Z" fill="#0898A0"/>
</svg>
