<svg width="42" height="43" viewBox="0 0 42 43" fill="none" xmlns="http://www.w3.org/2000/svg">
<rect y="0.964722" width="42" height="42" rx="21" fill="#71879C" fill-opacity="0.1"/>
<path d="M12.1251 20.0868L20.9973 14.8461L29.8694 20.0868C29.9564 20.1384 30.0523 20.1628 30.1469 20.1628C30.3339 20.1628 30.5162 20.0668 30.6183 19.8942C30.772 19.6343 30.6857 19.299 30.4254 19.1453L21.2754 13.7402C21.1039 13.6392 20.891 13.6392 20.7194 13.7402L11.5691 19.1453C11.3092 19.299 11.2229 19.6343 11.3762 19.8942C11.5299 20.1542 11.8652 20.2405 12.1251 20.0868Z" fill="#0898A0"/>
<path d="M30.1472 29.5709H11.8465C11.5446 29.5709 11.2998 29.8157 11.2998 30.1177C11.2998 30.4196 11.5446 30.6644 11.8465 30.6644H30.1472C30.4491 30.6644 30.6939 30.4196 30.6939 30.1177C30.6939 29.8154 30.4491 29.5709 30.1472 29.5709Z" fill="#0898A0"/>
<path d="M16.798 20.9288C17.0999 20.9288 17.3447 20.684 17.3447 20.3821C17.3447 20.0802 17.0999 19.8353 16.798 19.8353H14.9667C14.6647 19.8353 14.4199 20.0802 14.4199 20.3821C14.4199 20.684 14.6647 20.9288 14.9667 20.9288H15.3356V27.5205H14.9667C14.6647 27.5205 14.4199 27.7653 14.4199 28.0672C14.4199 28.3691 14.6647 28.6139 14.9667 28.6139H16.798C17.0999 28.6139 17.3447 28.3691 17.3447 28.0672C17.3447 27.7653 17.0999 27.5205 16.798 27.5205H16.4291V20.9288H16.798Z" fill="#0898A0"/>
<path d="M27.0275 20.9141C27.3294 20.9141 27.5742 20.6693 27.5742 20.3674C27.5742 20.0655 27.3294 19.8207 27.0275 19.8207H25.1961C24.8942 19.8207 24.6494 20.0655 24.6494 20.3674C24.6494 20.6693 24.8942 20.9141 25.1961 20.9141H25.5651V27.5058H25.1961C24.8942 27.5058 24.6494 27.7507 24.6494 28.0526C24.6494 28.3545 24.8942 28.5993 25.1961 28.5993H27.0275C27.3294 28.5993 27.5742 28.3545 27.5742 28.0526C27.5742 27.7507 27.3294 27.5058 27.0275 27.5058H26.6586V20.9141H27.0275Z" fill="#0898A0"/>
<path d="M23.2734 23.5153C23.3946 23.5153 23.4949 23.561 23.5742 23.6524C23.6582 23.7438 23.7002 23.861 23.7002 24.0038C23.7002 24.1467 23.6582 24.2667 23.5742 24.3638C23.4949 24.4553 23.3946 24.501 23.2734 24.501H22.9585V26.541C22.9585 26.6896 22.9165 26.8153 22.8325 26.9181C22.7532 27.0153 22.6529 27.0638 22.5316 27.0638C22.4663 27.0638 22.401 27.0524 22.3357 27.0296C22.275 27.001 22.2307 26.9638 22.2027 26.9181L20.5933 24.4153H19.6347V26.5838C19.6347 26.721 19.5974 26.8353 19.5227 26.9267C19.4527 27.0181 19.3594 27.0638 19.2428 27.0638C19.1309 27.0638 19.0399 27.0181 18.9699 26.9267C18.8999 26.8353 18.865 26.721 18.865 26.5838V24.501H18.627C18.5058 24.501 18.4055 24.4553 18.3261 24.3638C18.2422 24.2667 18.2002 24.1467 18.2002 24.0038C18.2002 23.861 18.2422 23.7438 18.3261 23.6524C18.4055 23.561 18.5058 23.5153 18.627 23.5153H18.865V21.5867C18.865 21.4381 18.9046 21.3153 18.9839 21.2181C19.0679 21.1153 19.1705 21.0638 19.2918 21.0638C19.3618 21.0638 19.4294 21.081 19.4947 21.1153C19.5647 21.1496 19.616 21.1953 19.6487 21.2524L21.1531 23.601H22.1957V21.5438C22.1957 21.4067 22.2307 21.2924 22.3007 21.201C22.3753 21.1096 22.4686 21.0638 22.5806 21.0638C22.6926 21.0638 22.7835 21.1096 22.8535 21.201C22.9235 21.2924 22.9585 21.4067 22.9585 21.5438V23.5153H23.2734ZM20.0685 23.601L19.6347 22.9238V23.601H20.0685ZM21.6709 24.4153L22.1957 25.2296V24.4153H21.6709Z" fill="#0898A0"/>
</svg>
