<svg width="30" height="24" viewBox="0 0 30 24" fill="none" xmlns="http://www.w3.org/2000/svg">
<path fill-rule="evenodd" clip-rule="evenodd" d="M5.18483 18.0357L4.97058 17.8238L4.70481 17.5641L2.02499 14.8806C1.98677 14.8427 1.95568 14.8113 1.89031 14.745C1.82707 14.6809 1.8012 14.6548 1.76671 14.6206C1.73206 14.5859 1.709 14.5626 1.65368 14.5064L1.55655 14.4074C1.33058 14.1833 1.116 13.9481 0.91364 13.7025C0.728623 13.5021 0.577922 13.2725 0.467696 13.0228L0.434476 12.9356C0.238313 12.3273 0.238313 11.6727 0.434476 11.0644L0.465255 10.9828C0.573979 10.732 0.72552 10.5021 0.912965 10.3035C1.10709 10.061 1.31586 9.83062 1.53809 9.61359C1.60108 9.544 1.65717 9.4866 1.76657 9.3772C1.79707 9.34691 1.82386 9.31985 1.88777 9.25498L1.95544 9.18664L1.99213 9.15L2.02114 9.12142L4.68783 6.45689C4.77097 6.36968 4.84579 6.29525 4.9633 6.18107L5.07345 6.07184C5.11763 6.0282 5.1556 5.99111 5.19321 5.95501L8.18043 2.97306C8.31149 2.83822 8.43032 2.72048 8.62187 2.53398C8.74602 2.4068 8.87489 2.28088 9.01871 2.14521C9.13197 2.02414 9.15614 1.99892 9.17035 1.986C9.57326 1.58391 10.0366 1.24728 10.5453 0.987366C11.0514 0.730254 11.5937 0.551882 12.1485 0.459269C12.6653 0.369957 13.1886 0.323455 13.6937 0.320562C13.8244 0.316947 13.884 0.315365 13.9577 0.313651C14.1118 0.310065 14.2422 0.308228 14.369 0.308228H22.7955C22.9876 0.308228 23.1387 0.311367 23.4503 0.320236C23.9757 0.323425 24.4999 0.369911 25.0128 0.458413C25.572 0.551798 26.1136 0.730403 26.6172 0.987236C27.1263 1.24566 27.5912 1.5831 27.9943 1.98674C28.3964 2.38894 28.7333 2.85145 28.9965 3.36508C29.249 3.86933 29.4261 4.40792 29.5237 4.97226C29.6071 5.48426 29.6523 6.00176 29.6585 6.50513C29.6628 6.65075 29.6647 6.7627 29.6676 7.01281L29.6697 7.18539V16.8146C29.6697 17.0264 29.6659 17.2457 29.6588 17.4796C29.6523 17.9983 29.6071 18.5158 29.5222 19.0364C29.4261 19.5921 29.249 20.1307 28.9911 20.6455C28.7309 21.1485 28.3956 21.6089 27.9946 22.013C27.5912 22.4169 27.1263 22.7544 26.6187 23.012C26.1136 23.2696 25.572 23.4482 25.012 23.5417C24.4976 23.6272 23.9774 23.6733 23.4698 23.6795C23.1387 23.6887 22.9876 23.6918 22.7955 23.6918H22.0251H22.0227H14.3714C14.2446 23.6918 14.1142 23.69 13.9601 23.6864C13.8864 23.6847 13.8268 23.6831 13.7097 23.6797C13.1892 23.6733 12.67 23.6271 12.156 23.5416C11.5961 23.4481 11.0538 23.2698 10.5459 23.0117C10.039 22.7527 9.57566 22.4161 9.19088 22.0316C9.1589 22.0014 9.14134 21.9831 9.07186 21.9096L9.03604 21.8719L9.01836 21.8533C8.85112 21.6933 8.73965 21.5842 8.63978 21.4815C8.45041 21.2968 8.31825 21.1657 8.19192 21.0362L5.28441 18.1298L5.18483 18.0357ZM22.0253 23.6918L22.0251 23.6189L22.0229 22.7924V21.966V21.893H14.3716C14.2605 21.893 14.1434 21.8914 14.0021 21.8881C13.9319 21.8865 13.8754 21.885 13.7459 21.8814C13.3032 21.8758 12.8752 21.8378 12.4519 21.7673C12.073 21.7041 11.7055 21.5832 11.3626 21.409C11.0245 21.2362 10.7138 21.0105 10.4435 20.7408C10.4317 20.7292 10.409 20.7055 10.3793 20.6741C10.2912 20.5808 10.2832 20.5724 10.2453 20.5381C10.1085 20.4067 10.0095 20.3099 9.91159 20.2095C9.71633 20.0187 9.59335 19.8967 9.47156 19.7719L6.49555 16.797C6.46753 16.7675 6.43778 16.7397 6.40645 16.7138L6.23163 16.5409L5.96981 16.2851L3.29524 13.6069C3.26032 13.5722 3.23445 13.5461 3.17121 13.482C3.10584 13.4157 3.07475 13.3843 3.03653 13.3464C3.00826 13.3181 2.98822 13.2979 2.93646 13.2453L2.88493 13.1928L2.83127 13.1382C2.6342 12.9427 2.45499 12.7455 2.24218 12.4895C2.1984 12.4434 2.16136 12.3915 2.13211 12.3353C2.07083 12.1153 2.07101 11.8827 2.13264 11.6628C2.15823 11.6136 2.19109 11.5685 2.23017 11.5289L2.29583 11.4547C2.45531 11.253 2.62796 11.0622 2.85806 10.836C2.90097 10.7879 2.94041 10.7473 3.0364 10.6513C3.07122 10.6168 3.10411 10.5835 3.16866 10.518L3.22975 10.4563L3.25931 10.4268L3.28624 10.4002L5.97472 7.71362C6.05337 7.6315 6.11506 7.57014 6.26679 7.42181L6.33762 7.3516C6.35918 7.33031 6.37873 7.3111 6.42788 7.27067L9.46161 4.23573C9.58742 4.10642 9.69734 3.99751 9.89368 3.80596C10.0147 3.68241 10.1263 3.57337 10.2563 3.45066C10.2892 3.41939 10.3273 3.37927 10.423 3.27679C10.7114 2.98952 11.0221 2.76376 11.362 2.59007C11.7031 2.41678 12.0706 2.29592 12.45 2.23258C12.8743 2.15927 13.2988 2.12154 13.7242 2.11893L13.7571 2.11807L13.7571 2.11807C13.8818 2.11479 13.9349 2.1134 13.9997 2.11189C14.141 2.10861 14.2581 2.10695 14.3692 2.10695H22.7957C22.9656 2.10695 23.1055 2.10986 23.4201 2.1186C23.8661 2.12152 24.2917 2.15926 24.712 2.23177C25.0946 2.29567 25.4605 2.41633 25.8017 2.59037C26.1428 2.76354 26.453 2.98868 26.7222 3.25817C26.9922 3.52825 27.2181 3.83851 27.3922 4.17801C27.5621 4.51736 27.6839 4.88783 27.75 5.27007C27.8176 5.68533 27.855 6.11378 27.8604 6.54324C27.8647 6.68991 27.8664 6.79458 27.8692 7.034L27.8712 7.19787L27.8711 7.57061V16.8146C27.8711 17.007 27.8677 17.2089 27.8608 17.4414C27.855 17.8862 27.8176 18.3147 27.7485 18.7386C27.6839 19.1122 27.5621 19.4826 27.3884 19.8295C27.2174 20.1597 26.9903 20.4716 26.7201 20.7439C26.453 21.0113 26.1428 21.2365 25.8032 21.4089C25.4605 21.5837 25.0946 21.7043 24.7167 21.7674C24.2932 21.8378 23.8641 21.8758 23.434 21.8811C23.1055 21.8901 22.9656 21.893 22.7957 21.893H22.0253V23.6918ZM21.4241 7.39535C21.727 7.09294 22.2176 7.0932 22.5202 7.39592C22.8221 7.69799 22.8228 8.18716 22.5222 8.49004L22.5309 8.49874L19.0345 11.9956L22.422 15.3775C22.4621 15.4051 22.4998 15.4366 22.5344 15.4717C22.8356 15.7741 22.8349 16.2633 22.5329 16.5648C22.2314 16.8659 21.7434 16.8664 21.4413 16.5663L21.4324 16.5751L17.9397 13.0906L14.4497 16.5811L14.4369 16.5682C14.1339 16.8652 13.6476 16.8635 13.3467 16.563C13.0457 16.2592 13.0457 15.7696 13.3467 15.4658C13.3867 15.4258 13.43 15.3911 13.4758 15.3617L16.8417 11.9953L13.3429 8.50476L13.3579 8.48981C13.0604 8.18789 13.0613 7.70214 13.3609 7.40129C13.5055 7.25452 13.7029 7.17188 13.909 7.17188C14.115 7.17188 14.3124 7.25452 14.457 7.40129C14.4958 7.4403 14.5297 7.48243 14.5585 7.52686L17.937 10.8999L21.3384 7.49791C21.3636 7.46193 21.3922 7.42759 21.4241 7.39535Z" fill="#0898A0"/>
</svg>
