<svg width="23" height="16" viewBox="0 0 23 16" fill="none" xmlns="http://www.w3.org/2000/svg">
<path d="M18.0963 15.6616C18.3508 15.9287 18.758 15.9459 19.021 15.6616C19.2925 15.3773 19.2755 14.9896 19.021 14.7225L4.83585 0.325448C4.58134 0.0669732 4.15714 0.0669732 3.90262 0.325448C3.65658 0.575306 3.65658 1.01471 3.90262 1.26457L18.0963 15.6616ZM18.9023 13.1716C21.3796 11.5088 23 9.22559 23 8.2003C23 6.45129 18.2914 0.87686 11.5042 0.87686C10.062 0.87686 8.70454 1.12672 7.47436 1.54028L9.68019 3.78039C10.2401 3.53915 10.851 3.40129 11.5042 3.40129C14.1258 3.40129 16.2468 5.51217 16.2468 8.2003C16.2468 8.85511 16.1025 9.48406 15.848 10.0355L18.9023 13.1716ZM11.5042 15.5238C13.0738 15.5238 14.533 15.2308 15.8141 14.7483L13.5913 12.491C12.9635 12.8184 12.2508 12.9993 11.5042 12.9993C8.85725 12.9993 6.76171 10.8195 6.75323 8.2003C6.75323 7.42488 6.93139 6.69254 7.2453 6.04635L4.34378 3.08251C1.67134 4.77983 0 7.16641 0 8.2003C0 9.9407 4.79343 15.5238 11.5042 15.5238ZM14.2021 8.01937C14.2021 6.5116 13.0059 5.28816 11.5042 5.28816C11.394 5.28816 11.2837 5.29677 11.1819 5.30539L14.1852 8.35539C14.1937 8.252 14.2021 8.13138 14.2021 8.01937ZM8.79786 8.00214C8.79786 9.51853 10.028 10.742 11.5127 10.742C11.6315 10.742 11.7418 10.7334 11.8606 10.7247L8.81483 7.63166C8.80634 7.75228 8.79786 7.88152 8.79786 8.00214Z" fill="#0898A0"/>
</svg>
