<svg width="20" height="20" viewBox="0 0 20 20" fill="none" xmlns="http://www.w3.org/2000/svg">
<path fill-rule="evenodd" clip-rule="evenodd" d="M13.5322 19.1274V16.085C13.5322 14.5097 12.0923 13.2327 10.517 13.2327H10.0824C8.50711 13.2327 7.06712 14.5097 7.06712 16.085V19.1274C7.06712 19.3274 7.10143 19.5194 7.1645 19.6979H5.73606C4.1608 19.6979 2.8838 18.4209 2.8838 16.8456V8.11982L1.54809 9.28857C1.31099 9.49603 0.950604 9.472 0.743141 9.2349C0.535678 8.9978 0.559704 8.63741 0.796804 8.42995L9.92403 0.443616C10.1391 0.255425 10.4602 0.255425 10.6753 0.443616L19.8026 8.42995C20.0397 8.63741 20.0637 8.9978 19.8562 9.2349C19.6488 9.472 19.2884 9.49603 19.0513 9.28857L17.7156 8.11982V16.8456C17.7156 18.4209 16.4386 19.6979 14.8633 19.6979H13.4349C13.4979 19.5194 13.5322 19.3274 13.5322 19.1274Z" fill="currentColor"/>
</svg>
