<svg width="33" height="32" viewBox="0 0 33 32" fill="none" xmlns="http://www.w3.org/2000/svg">
<g clip-path="url(#clip0_1367_1411)">
<path d="M16.9 17.8909C17.3532 17.8909 17.7965 17.7061 18.3975 17.3562L25.5009 13.3023C26.3975 12.787 26.8901 12.262 26.8901 11.4454C26.8901 10.6288 26.3975 10.0941 25.5009 9.5886L18.3975 5.53469C17.7965 5.18471 17.3532 5 16.9 5C16.4369 5 16.0034 5.18471 15.4024 5.53469L8.28913 9.5886C7.39257 10.0941 6.89996 10.6288 6.89996 11.4454C6.89996 12.262 7.39257 12.787 8.28913 13.3023L15.4024 17.3562C16.0034 17.7061 16.4369 17.8909 16.9 17.8909ZM16.9 22.5281C17.3433 22.5281 17.7571 22.3336 18.3384 21.9934L25.6783 17.7742C26.4468 17.327 26.9 16.8118 26.9 16.0632C26.9 15.4313 26.5551 14.9452 26.0527 14.5855L17.9542 19.2519C17.5207 19.4949 17.2251 19.6407 16.9 19.6407C16.5748 19.6407 16.2694 19.4949 15.8458 19.2519L7.74725 14.5855C7.23494 14.9452 6.89996 15.4313 6.89996 16.0632C6.89996 16.8118 7.35317 17.3367 8.11179 17.7742L15.4517 21.9934C16.033 22.3336 16.4468 22.5281 16.9 22.5281ZM16.9 27C17.3433 27 17.7571 26.7958 18.3384 26.4653L25.6783 22.2364C26.4369 21.7989 26.9 21.2837 26.9 20.5351C26.9 19.8935 26.5551 19.4074 26.0527 19.0477L17.9542 23.7141C17.5207 23.9669 17.2251 24.1127 16.9 24.1127C16.5748 24.1127 16.2694 23.9669 15.8458 23.7141L7.74725 19.0477C7.23494 19.4074 6.89996 19.8935 6.89996 20.5351C6.89996 21.2837 7.35317 21.7989 8.11179 22.2364L15.4517 26.4653C16.033 26.7958 16.4468 27 16.9 27Z" fill="currentColor"/>
</g>
<defs>
<clipPath id="clip0_1367_1411">
<rect width="32" height="32" fill="white" transform="translate(0.899963)"/>
</clipPath>
</defs>
</svg>
