<svg width="42" height="44" viewBox="0 0 42 44" fill="none" xmlns="http://www.w3.org/2000/svg">
<rect width="42" height="43.91" rx="21" fill="white" fill-opacity="0.2"/>
<path d="M27 26.08C26.24 26.08 25.56 26.38 25.04 26.85L17.91 22.7C17.96 22.47 18 22.24 18 22C18 21.76 17.96 21.53 17.91 21.3L24.96 17.19C25.5 17.69 26.21 18 27 18C28.66 18 30 16.66 30 15C30 13.34 28.66 12 27 12C25.34 12 24 13.34 24 15C24 15.24 24.04 15.47 24.09 15.7L17.04 19.81C16.5 19.31 15.79 19 15 19C13.34 19 12 20.34 12 22C12 23.66 13.34 25 15 25C15.79 25 16.5 24.69 17.04 24.19L24.16 28.34C24.11 28.55 24.08 28.77 24.08 29C24.08 30.61 25.39 31.91 27 31.91C28.61 31.91 29.92 30.61 29.92 29C29.92 27.39 28.61 26.08 27 26.08ZM27 14C27.55 14 28 14.45 28 15C28 15.55 27.55 16 27 16C26.45 16 26 15.55 26 15C26 14.45 26.45 14 27 14ZM15 23C14.45 23 14 22.55 14 22C14 21.45 14.45 21 15 21C15.55 21 16 21.45 16 22C16 22.55 15.55 23 15 23ZM27 30C26.45 30 26 29.55 26 29C26 28.45 26.45 28 27 28C27.55 28 28 28.45 28 29C28 29.55 27.55 30 27 30Z" fill="white"/>
</svg>
