<svg width="42" height="43" viewBox="0 0 42 43" fill="none" xmlns="http://www.w3.org/2000/svg">
<rect y="0.150635" width="42" height="42" rx="21" fill="#71879C" fill-opacity="0.1"/>
<path fill-rule="evenodd" clip-rule="evenodd" d="M23.5383 26.9603H14.8242C13.293 26.9603 12.5195 26.1868 12.5195 24.679V16.3275C12.5195 14.8118 13.293 14.0384 14.8242 14.0384H27.1836C28.707 14.0384 29.4805 14.8196 29.4805 16.3275V19.8918C29.172 19.7949 28.8506 19.7271 28.5195 19.6916V18.4493H13.4883V24.6243C13.4883 25.5306 13.9648 25.9915 14.8398 25.9915H23.1589C23.252 26.3302 23.3799 26.6544 23.5383 26.9603ZM14.8398 15.0071C13.9648 15.0071 13.4883 15.4759 13.4883 16.3743V16.9993H28.5195V16.3743C28.5195 15.4759 28.0195 15.0071 27.1602 15.0071H14.8398ZM17.6992 23.0306H15.7852C15.332 23.0306 15.0195 22.7181 15.0195 22.2806V21.3275C15.0195 20.89 15.332 20.5853 15.7852 20.5853H17.6992C18.1602 20.5853 18.4727 20.89 18.4727 21.3275V22.2806C18.4727 22.7181 18.1602 23.0306 17.6992 23.0306Z" fill="#0898A0"/>
<path fill-rule="evenodd" clip-rule="evenodd" d="M28.2465 25.1534C28.4018 25.2915 28.4795 25.5073 28.4795 25.8008C28.4795 26.0827 28.3644 26.3114 28.1342 26.4869C27.9041 26.6596 27.5977 26.7459 27.215 26.7459C26.8381 26.7459 26.5346 26.6567 26.3044 26.4783C26.0742 26.2971 25.9563 26.0496 25.9505 25.736H25.4024C25.4098 25.8409 25.4256 25.9409 25.4499 26.036C25.5201 26.3118 25.6611 26.5469 25.8728 26.7416C26.1606 27.0034 26.5375 27.1516 27.0035 27.1861V27.9629H27.4265V27.1861C27.9098 27.1516 28.2954 27.0048 28.5831 26.7459C28.8737 26.4869 29.019 26.1532 29.019 25.7447C29.019 25.4109 28.9283 25.1275 28.7471 24.8945C28.5658 24.6614 28.2666 24.483 27.8494 24.3593L26.8439 24.0745C26.5734 23.9997 26.3634 23.8918 26.2138 23.7508C26.067 23.607 25.9937 23.4142 25.9937 23.1725C25.9937 22.8791 26.0973 22.6446 26.3044 22.4691C26.5144 22.2907 26.7935 22.2015 27.1416 22.2015C27.4898 22.2015 27.7732 22.2921 27.9918 22.4734C28.2105 22.6518 28.3313 22.8978 28.3543 23.2114H28.8852C28.8791 23.1065 28.8646 23.0065 28.8417 22.9114C28.7778 22.646 28.6484 22.418 28.4536 22.2274C28.1918 21.9685 27.8494 21.816 27.4265 21.7699V20.9629H27.0035V21.7699C26.5432 21.7987 26.1706 21.9483 25.8858 22.2188C25.6038 22.4863 25.4629 22.823 25.4629 23.2286C25.4629 23.5566 25.5607 23.8299 25.7563 24.0486C25.952 24.2673 26.2555 24.4384 26.6669 24.5622L27.4869 24.7909C27.8408 24.8916 28.094 25.0124 28.2465 25.1534ZM27.4048 25.0794C27.4046 25.0794 27.405 25.0795 27.4048 25.0794L26.5805 24.8495C26.1393 24.7168 25.7785 24.5233 25.5327 24.2486C25.282 23.9684 25.1629 23.6211 25.1629 23.2286C25.1629 22.7447 25.3347 22.3281 25.6792 22.0012M27.4048 25.0794C27.7428 25.1757 27.9422 25.2807 28.0428 25.3737L28.0471 25.3776C28.1155 25.4384 28.1795 25.5566 28.1795 25.8008C28.1795 25.9859 28.1107 26.1273 27.9533 26.2477C27.7899 26.3698 27.5534 26.4459 27.215 26.4459C26.8855 26.4459 26.6529 26.3685 26.4891 26.2419C26.3358 26.1208 26.2547 25.961 26.2505 25.7305L26.2451 25.436H25.0806L25.1032 25.7571C25.137 26.2372 25.325 26.6455 25.6698 26.9624L25.6709 26.9635C25.9541 27.2211 26.3026 27.3803 26.7035 27.451V28.2629H27.7265V27.4526C28.1398 27.3836 28.497 27.2267 28.7832 26.9694C29.1408 26.6505 29.319 26.2337 29.319 25.7447C29.319 25.3533 29.2114 25.0028 28.9839 24.7103C28.7498 24.4094 28.3849 24.2052 27.9347 24.0717L26.9256 23.7858L26.9238 23.7853C26.6858 23.7195 26.5253 23.6313 26.4218 23.5346C26.3438 23.4572 26.2937 23.3474 26.2937 23.1725C26.2937 22.9591 26.3644 22.8114 26.4983 22.698C26.6411 22.5767 26.8454 22.5015 27.1416 22.5015C27.4362 22.5015 27.6469 22.5771 27.8004 22.7043L27.8022 22.7058C27.9493 22.8259 28.0374 22.9916 28.0552 23.2333L28.0756 23.5114H29.2031L29.1847 23.194C29.1577 22.7287 28.9859 22.3287 28.664 22.0135C28.4076 21.7601 28.0913 21.5964 27.7265 21.5154V20.6629H26.7035V21.5031C26.3055 21.572 25.9596 21.735 25.6792 22.0012" fill="#0898A0"/>
<path d="M29.0189 25.7445C29.0189 26.153 28.8736 26.4868 28.583 26.7457C28.2953 27.0046 27.9097 27.1514 27.4264 27.1859V27.9627H27.0035V27.1859C26.5374 27.1514 26.1605 27.0032 25.8728 26.7414C25.5879 26.4796 25.4311 26.1444 25.4023 25.7358H25.9504C25.9562 26.0494 26.0741 26.2969 26.3043 26.4781C26.5345 26.6565 26.838 26.7457 27.2149 26.7457C27.5976 26.7457 27.904 26.6594 28.1342 26.4868C28.3643 26.3112 28.4794 26.0825 28.4794 25.8006C28.4794 25.5071 28.4017 25.2913 28.2464 25.1532C28.0939 25.0122 27.8407 24.8914 27.4868 24.7907L26.6668 24.562C26.2554 24.4383 25.9519 24.2671 25.7562 24.0484C25.5606 23.8297 25.4628 23.5564 25.4628 23.2284C25.4628 22.8228 25.6037 22.4861 25.8857 22.2186C26.1705 21.9481 26.5431 21.7985 27.0035 21.7697V20.9627H27.4264V21.7697C27.8493 21.8158 28.1917 21.9683 28.4535 22.2272C28.7182 22.4861 28.8621 22.8141 28.8851 23.2112H28.3543C28.3312 22.8976 28.2104 22.6516 27.9917 22.4732C27.7731 22.2919 27.4897 22.2013 27.1416 22.2013C26.7934 22.2013 26.5143 22.2905 26.3043 22.4689C26.0972 22.6444 25.9936 22.8789 25.9936 23.1723C25.9936 23.414 26.067 23.6068 26.2137 23.7506C26.3633 23.8916 26.5733 23.9995 26.8438 24.0743L27.8493 24.3591C28.2665 24.4828 28.5657 24.6612 28.747 24.8943C28.9282 25.1273 29.0189 25.4107 29.0189 25.7445Z" fill="#0898A0"/>
</svg>
