<svg width="33" height="32" viewBox="0 0 33 32" fill="none" xmlns="http://www.w3.org/2000/svg">
<path d="M5.5 9.675C5.5 8.61185 6.36185 7.75 7.425 7.75H22.275C23.3382 7.75 24.2 8.61185 24.2 9.675V19.025C24.2 20.0882 23.3382 20.95 22.275 20.95H7.425C6.36185 20.95 5.5 20.0882 5.5 19.025V9.675ZM8.8 9.125V10.225C8.8 10.6806 8.43064 11.05 7.975 11.05H6.875V12.7H7.975C9.34191 12.7 10.45 11.5919 10.45 10.225V9.125H8.8ZM14.85 17.1C16.2169 17.1 17.325 15.9919 17.325 14.625C17.325 13.2581 16.2169 12.15 14.85 12.15C13.4831 12.15 12.375 13.2581 12.375 14.625C12.375 15.9919 13.4831 17.1 14.85 17.1ZM6.875 17.65H7.975C8.43064 17.65 8.8 18.0194 8.8 18.475V19.575H10.45V18.475C10.45 17.1081 9.34191 16 7.975 16H6.875V17.65ZM20.9 18.475C20.9 18.0194 21.2694 17.65 21.725 17.65H22.825V16H21.725C20.3581 16 19.25 17.1081 19.25 18.475V19.575H20.9V18.475ZM20.9 10.225V9.125H19.25V10.225C19.25 11.5919 20.3581 12.7 21.725 12.7H22.825V11.05H21.725C21.2694 11.05 20.9 10.6806 20.9 10.225ZM8.14148 22.6C8.71207 23.5864 9.77854 24.25 11 24.25H22.275C25.1607 24.25 27.5 21.9107 27.5 19.025V13.25C27.5 12.0285 26.8364 10.9621 25.85 10.3915V19.025C25.85 20.9994 24.2494 22.6 22.275 22.6H8.14148Z" fill="currentColor"/>
<rect x="6.7373" y="8.67822" width="4.02188" height="4.64063" fill="currentColor"/>
<rect x="19.1123" y="8.67822" width="4.02188" height="4.64063" fill="currentColor"/>
<rect x="19.1123" y="15.1753" width="4.02188" height="4.64063" fill="currentColor"/>
<rect x="6.7373" y="15.4844" width="4.02188" height="4.64063" fill="currentColor"/>
</svg>
